<svg id="Capa_1" enable-background="new 0 0 512 512" height="512" viewBox="0 0 512 512" width="512" xmlns="http://www.w3.org/2000/svg"><g><path d="m512 256c0 141.38-114.62 256-256 256-38.1 0-74.25-8.32-106.74-23.26v-.02c0-69.61-56.42-126.03-126.03-126.04-14.92-32.47-23.23-68.61-23.23-106.68 0-46.22 12.25-89.57 33.68-127 44.12-77.07 127.16-129 222.32-129s178.2 51.93 222.32 129c21.43 37.43 33.68 80.78 33.68 127z" fill="#81f700"/><path d="m512 256c0 46.01-12.14 89.18-33.39 126.49-44.04 77.35-127.24 129.51-222.61 129.51-38.09 0-74.24-8.33-106.74-23.26v-.02c0-69.61-56.43-126.04-126.04-126.04-14.91-32.48-23.22-68.61-23.22-106.68 0-46.22 12.25-89.57 33.68-127 33.47 58.47 89.35 102.47 155.92 120.3 11.64 3.12 23.6 5.44 35.82 6.89 9.38 1.12 18.92 1.72 28.6 1.79.66.02 1.32.02 1.98.02 10.2 0 20.25-.6 30.14-1.76 19.32-2.26 37.98-6.68 55.73-13.01 57.96-20.62 106.3-61.55 136.45-114.23 21.43 37.43 33.68 80.78 33.68 127z" fill="#00cc7f"/><g><path d="m397.28 187.82-55.41 55.41-131.36 131.36c-4.56 4.55-6.9 10.91-6.2 17.32 3 27.65-6.1 56.35-27.29 77.55-8.28 8.27-17.7 14.7-27.76 19.28-41.31-18.97-76.7-48.62-102.64-85.41-8.98-12.74-16.83-26.34-23.4-40.65 4.35-9.47 10.35-18.39 18-26.35 21.31-22.15 50.64-31.7 78.87-28.64 6.41.7 12.77-1.64 17.32-6.2l186.77-186.77c10.1-10.09 23.32-15.14 36.55-15.14 13.23.01 26.46 5.05 36.55 15.14 20.18 20.19 20.18 52.91 0 73.1z" fill="#fff"/><path d="m397.28 187.82-55.41 55.41-131.36 131.36c-4.56 4.55-6.9 10.91-6.2 17.32 3 27.65-6.1 56.35-27.29 77.55-8.28 8.27-17.7 14.7-27.76 19.28-27.8-12.76-52.91-30.36-74.27-51.73l322.29-322.29c20.18 20.19 20.18 52.91 0 73.1z" fill="#cff6ff"/><path d="m375.92 136.08c-4.18-4.19-9.69-6.28-15.19-6.28s-11.01 2.09-15.19 6.28l-120.12 120.11-74.39 74.39c-7.23 7.24-17.64 10.32-27.64 8.19-21.65-4.61-43.88 1.96-59.49 17.57-12.32 12.31-18.64 28.39-18.96 44.57.55.81 1.11 1.62 1.68 2.42 8.49 12.03 17.98 23.31 28.37 33.68 11.08 11.08 23.17 21.15 36.12 30.05 16.17-.32 32.24-6.64 44.55-18.96 15.61-15.61 22.18-37.84 17.57-59.49-2.13-10 .95-20.41 8.19-27.64l104.72-104.73 89.78-89.78c8.38-8.37 8.38-22 0-30.38z" fill="#cff6ff"/><path d="m111.11 467.06c16.17-.32 32.24-6.64 44.55-18.96 15.61-15.61 22.18-37.84 17.57-59.49-2.13-10 .95-20.41 8.19-27.64l104.72-104.73h.01l89.77-89.78c8.38-8.37 8.38-22 0-30.38l-121.9 121.9-179.03 179.03z" fill="#b0edf7"/><path d="m144.27 436.527c-18.998 18.998-49.791 18.993-68.793 0-.276-.276-.552-.561-.828-.845-17.997-18.869-17.77-48.994.489-67.609 13.299-13.557 32.528-17.659 49.43-12.315 8.876 2.807 18.575.334 25.156-6.247l125.444-125.444c3.519-3.519 9.245-3.515 12.765.005.107.107.209.218.311.329 3.257 3.595 2.936 9.183-.498 12.618l-125.257 125.256c-6.554 6.554-9.094 16.222-6.278 25.053 5.344 16.779 1.37 35.888-11.941 49.199z" fill="#fe3244"/><path d="m144.27 436.527c-18.998 18.998-49.791 18.993-68.793 0l212.457-212.457c.107.107.209.218.311.329 3.257 3.595 2.936 9.183-.498 12.618l-125.258 125.258c-6.554 6.554-9.094 16.222-6.278 25.053 5.344 16.779 1.37 35.888-11.941 49.199z" fill="#de1263"/><g><path d="m346.16 189.72c0 2.53-.97 5.06-2.9 7-3.86 3.86-10.13 3.86-13.99 0l-6.99-7-7-6.99c-1.93-1.93-2.9-4.46-2.9-6.99 0-2.54.97-5.07 2.9-7 3.87-3.86 10.13-3.86 13.99 0l7 6.99 6.99 7c1.93 1.93 2.9 4.46 2.9 6.99z" fill="#464f6e"/><path d="m346.16 189.72c0 2.53-.97 5.06-2.9 7-3.86 3.86-10.13 3.86-13.99 0l-6.99-7 13.99-13.99 6.99 7c1.93 1.93 2.9 4.46 2.9 6.99z" fill="#303c5a"/><path d="m304.19 231.69c0 2.53-.97 5.06-2.9 6.99-3.86 3.87-10.12 3.87-13.99 0l-13.98-13.98c-1.94-1.94-2.9-4.47-2.9-7s.96-5.06 2.9-6.99c3.86-3.87 10.12-3.87 13.98 0l7 6.99v.01l6.99 6.99c1.93 1.93 2.9 4.46 2.9 6.99z" fill="#464f6e"/><path d="m304.19 231.69c0 2.53-.97 5.06-2.9 6.99-3.86 3.87-10.12 3.87-13.99 0l-6.98-6.98 13.98-13.99 6.99 6.99c1.93 1.93 2.9 4.46 2.9 6.99z" fill="#303c5a"/><path d="m262.22 273.66c0 2.53-.96 5.06-2.89 6.99-3.87 3.86-10.13 3.86-13.99 0l-6.99-6.99h-.01l-6.99-7c-1.93-1.93-2.89-4.46-2.89-6.99s.96-5.07 2.89-7c3.86-3.86 10.13-3.86 13.99 0l6.99 7h.01l6.99 6.99c1.93 1.93 2.89 4.46 2.89 7z" fill="#464f6e"/><path d="m259.33 266.66c1.93 1.93 2.89 4.46 2.89 7 0 2.53-.96 5.06-2.89 6.99-3.87 3.86-10.13 3.86-13.99 0l-6.99-6.99 13.99-13.99z" fill="#303c5a"/><path d="m220.26 315.62c0 2.53-.97 5.06-2.9 7-3.86 3.86-10.13 3.86-13.99 0l-6.99-6.99v-.01l-7-6.99c-1.93-1.93-2.9-4.46-2.9-6.99 0-2.54.97-5.07 2.9-7 3.87-3.86 10.13-3.86 13.99 0l7 6.99v.01l6.99 6.99c1.93 1.93 2.9 4.46 2.9 6.99z" fill="#464f6e"/><path d="m217.36 308.63c1.93 1.93 2.9 4.46 2.9 6.99s-.97 5.06-2.9 7c-3.86 3.86-10.13 3.86-13.99 0l-6.99-6.99 13.99-13.99z" fill="#303c5a"/></g></g><path d="m437.019 437.019c-99.971 99.971-262.068 99.971-362.039 0s-99.971-262.068 0-362.039c32.682-32.682 71.998-54.674 113.618-65.987 85.694-23.299 181.133-1.301 248.421 65.987s89.286 162.726 65.987 248.421c-11.313 41.621-33.304 80.936-65.987 113.618z" fill="none"/></g></svg>