<svg id="Capa_1" enable-background="new 0 0 512 512" height="512" viewBox="0 0 512 512" width="512" xmlns="http://www.w3.org/2000/svg"><g><path d="m512 256c0 141.38-114.62 256-256 256-20.27 0-39.99-2.36-58.9-6.82l-20.72-8.29c-22.09-8.85-42.2-21.98-59.18-38.66l-91.07-89.45c-16.73-34.03-26.13-72.31-26.13-112.78 0-46.22 12.25-89.57 33.68-127 44.12-77.07 127.16-129 222.32-129s178.2 51.93 222.32 129c21.43 37.43 33.68 80.78 33.68 127z" fill="#22d7ff"/><path d="m512 256c0 141.38-114.62 256-256 256-20.27 0-39.99-2.36-58.9-6.82l-20.72-8.29c-22.09-8.85-42.2-21.98-59.18-38.66l-91.07-89.45c-16.73-34.03-26.13-72.31-26.13-112.78 0-46.22 12.25-89.57 33.68-127 44.12 77.07 127.16 129 222.32 129s178.2-51.93 222.32-129c21.43 37.43 33.68 80.78 33.68 127z" fill="#00b3ff"/><g><path d="m225.99 383.38c28.67 28.68 28.67 75.33 0 104-8.39 8.39-18.32 14.33-28.89 17.8-75.23-17.71-137.66-68.61-170.97-136.4-2.27-20.23 3.83-41.23 18.3-57.33.88-.98 1.8-1.94 2.74-2.88l44.28-44.28 15.44 15.45-44.28 44.27c-.94.94-1.84 1.93-2.7 2.92-17.41 20.28-16.51 50.98 2.71 70.19l74.81 74.82c20.16 20.15 52.95 20.15 73.11 0 20.16-20.16 20.16-52.95 0-73.11l-10.43-10.44c-14.65-14.64-14.65-38.46 0-53.1l41.46-41.47 15.45 15.45-41.47 41.47c-6.12 6.12-6.12 16.08 0 22.21z" fill="#fff"/><path d="m218.26 391.1c12.23 12.23 18.34 28.26 18.35 44.28-.01 16.03-6.12 32.05-18.35 44.28-12.67 12.67-29.42 18.77-46.02 18.31-15.66-5.42-30.64-12.32-44.75-20.53l-72.6-72.6c-23.52-23.51-24.42-61.06-2.72-85.65.87-.99 1.78-1.96 2.72-2.9l44.28-44.28 7.72 7.73-44.28 44.27c-.47.47-.93.95-1.37 1.44 0 0-.01.01-.02.01-.44.48-.88.97-1.31 1.47-17.41 20.28-16.51 50.98 2.71 70.19l74.81 74.82c20.16 20.15 52.95 20.15 73.11 0 20.16-20.16 20.16-52.95 0-73.11l-10.43-10.44c-14.65-14.64-14.65-38.46 0-53.1l41.46-41.47 7.72 7.73-41.46 41.46c-10.4 10.4-10.4 27.26 0 37.66z" fill="#cff6ff"/><path d="m52.173 319.193-7.739-7.739c.88-.989 1.792-1.946 2.734-2.889l44.278-44.278 7.723 7.723-44.278 44.278c-.941.944-1.853 1.917-2.718 2.905z" fill="#cff6ff"/><path d="m59.912 326.932-7.739-7.739c.865-.989 1.776-1.962 2.719-2.904l44.278-44.278 7.723 7.723-44.278 44.278c-.471.471-.927.942-1.375 1.436 0 0-.008.008-.015.015-.448.481-.888.967-1.313 1.469z" fill="#91dde5"/><path d="m215.362 315.601h44.279v10.922h-44.279z" fill="#cff6ff" transform="matrix(.707 -.707 .707 .707 -157.463 261.976)"/><path d="m207.638 307.878h44.279v10.922h-44.279z" fill="#91dde5" transform="matrix(.707 -.707 .707 .707 -154.264 254.253)"/><path d="m478.653 234.716-56.882 56.882c-44.811 44.811-117.726 44.818-162.537.008-44.818-44.818-44.81-117.734 0-162.544l56.882-56.882c15.941-15.941 41.891-15.941 57.832 0l20.127 20.127-15.447 15.447-20.127-20.127c-7.43-7.43-19.516-7.422-26.939 0l-56.882 56.882c-36.292 36.292-36.3 95.352 0 131.651 36.292 36.292 95.352 36.284 131.643-.008l56.882-56.882c7.422-7.422 7.43-19.509 0-26.939l-20.127-20.127 15.447-15.447 20.127 20.127c15.95 15.949 15.942 41.891.001 57.832z" fill="#442f40"/><path d="m470.93 226.993-56.882 56.882c-20.312 20.312-46.927 30.461-73.549 30.468-26.615 0-53.237-10.156-73.541-30.46-40.625-40.625-40.617-106.481 0-147.098l56.882-56.882c11.701-11.701 30.685-11.701 42.385 0l20.127 20.127-7.723 7.723-20.127-20.127c-7.43-7.43-19.516-7.422-26.939 0l-56.882 56.882c-36.292 36.292-36.3 95.352 0 131.651 36.292 36.292 95.352 36.284 131.643-.008l56.882-56.882c7.422-7.422 7.43-19.509 0-26.939l-20.127-20.127 7.723-7.723 20.127 20.127c11.709 11.709 11.702 30.685.001 42.386z" fill="#42293d"/><path d="m290.885 323.92c-4.24-1.97-8.38-4.163-12.373-6.565-6.024-3.615-13.709-2.742-18.675 2.224l-13.925 13.925-28.576-28.576 13.724-13.724c4.958-4.958 5.831-12.658 2.216-18.667-2.51-4.163-4.75-8.457-6.719-12.852-2.51-5.63.371-12.187 6.233-14.111l18.829-6.148c5.004-1.637 10.38.773 12.628 5.538 4.155 8.82 10.064 16.999 17.277 24.089 7.152 7.059 15.586 13.037 24.869 17.516 4.796 2.309 7.098 7.854 5.29 12.859l-6.727 18.605c-2.062 5.694-8.572 8.436-14.071 5.887z" fill="#63455d"/><path d="m76.478 319.634-24.521-24.522 47.684-39.883 16.72 16.721z" fill="#63455d"/><path d="m76.478 319.634-12.264-12.265 43.783-43.783 8.364 8.364z" fill="#53354b"/><path d="m147.594 284.956c-16.829 16.829-44.123 16.829-60.96-.008-16.829-16.829-16.829-44.123 0-60.952s44.123-16.829 60.952 0c16.837 16.837 16.837 44.131.008 60.96z" fill="#53354b"/><path d="m147.594 284.956c-16.829 16.829-44.123 16.829-60.96-.008l60.952-60.952c16.837 16.837 16.837 44.131.008 60.96z" fill="#442f40"/><path d="m132.511 269.872c-8.503 8.503-22.289 8.496-30.793-.008-8.503-8.503-8.503-22.282 0-30.785s22.282-8.503 30.785 0c8.503 8.504 8.511 22.29.008 30.793z" fill="#442f40"/><path d="m290.885 323.92c-4.24-1.97-8.38-4.163-12.373-6.565-6.024-3.615-13.709-2.742-18.675 2.224l-13.925 13.925-14.419-14.419 50.031-50.031c7.152 7.059 15.586 13.037 24.869 17.516 4.796 2.309 7.098 7.854 5.29 12.859l-6.727 18.605c-2.062 5.693-8.572 8.435-14.071 5.886z" fill="#53354b"/><path d="m132.511 269.872c-8.503 8.503-22.289 8.496-30.793-.008l30.785-30.785c8.503 8.504 8.511 22.29.008 30.793z" fill="#42293d"/><g><path d="m397.327 111.005c-4.588 4.588-10.596 6.873-16.605 6.889-6.001-.008-12.01-2.294-16.597-6.881-4.256-4.255-4.248-11.152 0-15.4l17.802-17.802c4.255-4.255 11.145-4.255 15.4 0 4.588 4.588 6.882 10.589 6.881 16.597-.007 6-2.301 12.017-6.881 16.597z" fill="#fff"/><path d="m473.023 168.906-17.802 17.802c-4.248 4.248-11.145 4.256-15.4 0-4.58-4.58-6.874-10.596-6.881-16.597.008-6.017 2.302-12.018 6.889-16.605 4.58-4.58 10.589-6.882 16.598-6.882s12.017 2.302 16.597 6.881c4.255 4.256 4.255 11.145-.001 15.401z" fill="#cff6ff"/></g><path d="m397.327 111.005c-4.588 4.588-10.596 6.873-16.605 6.889-6.001-.008-12.01-2.294-16.597-6.881-4.256-4.255-4.248-11.152 0-15.4l8.905-8.905z" fill="#cff6ff"/><path d="m464.126 177.803-8.905 8.905c-4.248 4.248-11.145 4.256-15.4 0-4.58-4.58-6.874-10.596-6.881-16.597.008-6.017 2.302-12.018 6.889-16.605z" fill="#b0edf7"/></g><path d="m437.019 437.019c-99.971 99.971-262.068 99.971-362.039 0s-99.971-262.068 0-362.039c32.682-32.683 71.998-54.674 113.618-65.987 85.694-23.299 181.133-1.301 248.421 65.987s89.286 162.726 65.987 248.421c-11.313 41.621-33.304 80.936-65.987 113.618z" fill="none"/></g></svg>